<?xml version="1.0" encoding="utf-8"?>
<!-- Generator: Adobe Illustrator 24.1.2, SVG Export Plug-In . SVG Version: 6.00 Build 0)  -->
<svg version="1.1" id="Layer_1" xmlns="http://www.w3.org/2000/svg" xmlns:xlink="http://www.w3.org/1999/xlink" x="0px" y="0px"
	 viewBox="0 0 80 63.1" style="enable-background:new 0 0 80 63.1;" xml:space="preserve">
<style type="text/css">
	.st0{fill:#FFFFFF;}
</style>
<g>
	<g>
		<path class="st0" d="M38.2,0v1.4c-0.1,0.1-0.3,0.1-0.4,0.2c-0.3,0.2-0.6,0.3-0.9,0.5c-2,1.2-3.8,2.5-5.5,4.1
			c-2.5,2.3-4.6,5.1-6.3,8.3V0H38.2z"/>
	</g>
	<g>
		<path class="st0" d="M80,27v22.1c0,5.9-4,11.1-9.7,12.5l0.1,0.5c0,0,0,0,0,0l-0.2-0.5c-3.9,1-8.3,1.4-13,1.4
			c-4.8,0-9.3-0.8-13.3-2.3c-2.7-1-5.2-2.3-7.4-3.9c0.2-0.3,0.4-0.5,0.5-0.7c1.5-2.3,2.6-4.9,3.2-7.7c0.4-1.8,0.6-3.6,0.8-5.3
			c0.6,1.2,1.4,2.2,2.3,3.2c1.7,1.8,3.8,3.2,6.3,4.2c2.4,1,5.3,1.5,8.4,1.5c1.8,0,3.5-0.1,5.1-0.4c1.6-0.3,3.2-0.7,4.6-1.3l0.6-0.3
			V37.1H56.5V27H80z"/>
	</g>
	<g>
		<path class="st0" d="M79.2,7.4l-8.1,9.2c-1.4-1.4-3.2-2.6-5.3-3.6c-2.5-1.1-5.4-1.7-8.5-1.7c-2.7,0-5.3,0.5-7.6,1.5
			c-2.3,1-4.4,2.4-6.1,4.2c-1.7,1.8-3.1,4-4,6.4c-0.9,2.3-1.4,4.8-1.4,7.5v8.6c0,2.4-0.3,4.9-0.8,7.5c-0.5,2.5-1.5,4.9-2.9,7
			c-0.2,0.2-0.3,0.5-0.5,0.7L33.9,55l-0.1,0.1l-0.1,0.1l-0.1,0.1l-0.1,0.1l0,0l-0.1,0.1c-1.3,1.5-2.9,2.7-4.8,3.8
			c-2.5,1.4-5.8,2.1-9.8,2.1c-5,0-9.2-1.3-12.5-3.9c-3.1-2.4-5.2-5.4-6.4-9l11.3-3.8c0.5,1.4,1.2,2.5,2.2,3.4
			c1.3,1.2,2.8,1.7,4.6,1.7c2.9,0,4.8-1,5.7-3.1c0.8-1.8,1.3-4.2,1.3-7V26.6c0-2.9,0.5-5.6,1.6-8.1c1.7-3.9,4-7.2,6.9-9.9
			c1.6-1.5,3.3-2.8,5.2-3.8c0.3-0.2,0.5-0.3,0.8-0.5c1.4-0.7,2.8-1.4,4.3-2c4-1.5,8.3-2.2,12.8-2.2c4.8,0,9.2,0.7,13.3,2.2
			C73.7,3.6,76.8,5.3,79.2,7.4z"/>
	</g>
</g>
</svg>
